<?xml version="1.0" encoding="UTF-8"?>
<svg id="Lag_1" xmlns="http://www.w3.org/2000/svg" xmlns:xlink="http://www.w3.org/1999/xlink" viewBox="0 0 70.43 51.52">
  <defs>
    <style>
      .cls-1 {
        stroke: #351b2f;
      }

      .cls-1, .cls-2, .cls-3, .cls-4, .cls-5, .cls-6, .cls-7, .cls-8, .cls-9, .cls-10 {
        stroke-miterlimit: 10;
      }

      .cls-1, .cls-2, .cls-4, .cls-6, .cls-7, .cls-8, .cls-9 {
        fill: none;
      }

      .cls-11 {
        fill: url(#Ikke-navngivet_forløb_7-2);
      }

      .cls-12 {
        fill: #351b2f;
      }

      .cls-2, .cls-5 {
        stroke: #000;
      }

      .cls-13 {
        fill: url(#Ikke-navngivet_forløb_7);
      }

      .cls-3 {
        fill: #31192f;
        stroke: #31192f;
      }

      .cls-14 {
        fill: #3f3045;
      }

      .cls-4 {
        stroke: #2d1925;
      }

      .cls-15 {
        fill: url(#Ikke-navngivet_forløb_19);
      }

      .cls-5, .cls-16 {
        fill: #160816;
      }

      .cls-6 {
        stroke: #f7f0c7;
      }

      .cls-17 {
        fill: #fff1c1;
      }

      .cls-7 {
        stroke: #3d1d3c;
      }

      .cls-18 {
        fill: #654b54;
      }

      .cls-19 {
        fill: #704f4c;
      }

      .cls-20 {
        fill: url(#Ikke-navngivet_forløb_50);
      }

      .cls-21 {
        fill: url(#Ikke-navngivet_forløb_38);
      }

      .cls-22 {
        fill: #b79c75;
      }

      .cls-23 {
        fill: url(#Ikke-navngivet_forløb_22);
      }

      .cls-8 {
        stroke: #e3dcb7;
      }

      .cls-9 {
        stroke: #2d151b;
      }

      .cls-10 {
        fill: url(#Ikke-navngivet_forløb_7-3);
        stroke: url(#Ikke-navngivet_forløb_27);
      }
    </style>
    <linearGradient id="Ikke-navngivet_forløb_7" data-name="Ikke-navngivet forløb 7" x1="16.49" y1="26.55" x2="40.5" y2="26.55" gradientUnits="userSpaceOnUse">
      <stop offset="0" stop-color="#fff"/>
      <stop offset=".78" stop-color="#452f42"/>
    </linearGradient>
    <linearGradient id="Ikke-navngivet_forløb_7-2" data-name="Ikke-navngivet forløb 7" x1="39.5" y1="21.87" x2="52.39" y2="21.87" xlink:href="#Ikke-navngivet_forløb_7"/>
    <linearGradient id="Ikke-navngivet_forløb_7-3" data-name="Ikke-navngivet forløb 7" x1="3.5" y1="37.89" x2="20.58" y2="37.89" xlink:href="#Ikke-navngivet_forløb_7"/>
    <linearGradient id="Ikke-navngivet_forløb_27" data-name="Ikke-navngivet forløb 27" x1="3" y1="37.89" x2="21.08" y2="37.89" gradientUnits="userSpaceOnUse">
      <stop offset=".57" stop-color="#675a55"/>
      <stop offset="1" stop-color="#362339" stop-opacity=".9"/>
    </linearGradient>
    <linearGradient id="Ikke-navngivet_forløb_50" data-name="Ikke-navngivet forløb 50" x1="22.19" y1="11.1" x2="41.93" y2="11.1" gradientUnits="userSpaceOnUse">
      <stop offset=".02" stop-color="#e6ddc0"/>
      <stop offset=".79" stop-color="#3e2d40"/>
    </linearGradient>
    <linearGradient id="Ikke-navngivet_forløb_38" data-name="Ikke-navngivet forløb 38" x1="52.49" y1="13.03" x2="70" y2="13.03" gradientUnits="userSpaceOnUse">
      <stop offset=".33" stop-color="#675a55"/>
      <stop offset="1" stop-color="#362339" stop-opacity=".9"/>
    </linearGradient>
    <linearGradient id="Ikke-navngivet_forløb_22" data-name="Ikke-navngivet forløb 22" x1="28.5" y1="22.46" x2="31.65" y2="22.46" gradientUnits="userSpaceOnUse">
      <stop offset="0" stop-color="#675a55"/>
      <stop offset="1" stop-color="#362339" stop-opacity=".9"/>
    </linearGradient>
    <linearGradient id="Ikke-navngivet_forløb_19" data-name="Ikke-navngivet forløb 19" x1="44.5" y1="14.02" x2="49.2" y2="14.02" gradientUnits="userSpaceOnUse">
      <stop offset="0" stop-color="#685a5a"/>
      <stop offset="1" stop-color="#190a24"/>
    </linearGradient>
  </defs>
  <path class="cls-18" d="M17.25,30.46l11.75-6.19,3.62,13.62-1.5,3.97-5.62,2.16c-1.58.7-3.15,1.41-4.73,2.11l-3.52-15.68Z"/>
  <path class="cls-18" d="M34.01,23.02l10.53-5.5c.25.35.6.86.96,1.5.99,1.76,1.52,3.47,2,6,.39,2.04.79,4.83.9,8.24-1.08.09-2.16.17-3.23.26l-2.46,1.68-3.33,2.3-2.48,1.86-.9-.13-1.99-16.21Z"/>
  <path class="cls-18" d="M49.87,14.86l12.45-6.83,3.18,5,1.17,7.64-1.64,4.4-1.86.61s-2.19.26-1.93-.2-2.24,1.31-2.24,1.31l-2.78,1.87-2.82,1.8-1.1-.55-2.44-15.05Z"/>
  <polygon class="cls-18" points="52.39 2.79 57.72 2.22 61.91 6.14 62.97 9.73 53.5 16.02 51.17 7.65 52.39 2.79"/>
  <path class="cls-13" d="M32.5,41.02c.26.2.87-.21,2-1,1.66-1.15,1.9-1.62,2-2,.1-.39.04-.69,0-1-.3-2.13.27-2.29,0-4-.27-1.74-.99-2.38-1-4,0-.06,0-.47,0-1,0-1.49.04-1.66,0-2-.08-.6-.32-1.02-1-2-2.17-3.13-2.45-2.8-4-5-.62-.88-.96-.74-1-1-.38-2.35,11.02-5.96,11-6-.01-.03-8.33,2.42-11,4-.33.2-1.43.88-3,1-.46.03-.7,0-1,0-1.68,0-3,1.17-4,2-3.39,2.83-5.17,3.71-5,4,.34.59,6.81-4.2,10-2,1.16.8,2.3,2.85,3,4,.08.13.57.94,1,2,.6,1.49.61,2.31,1,5,.82,5.72,1.41,6.49,1,8-.06.22-.24.82,0,1Z"/>
  <path class="cls-11" d="M48.3,33.91c.26.2.87-.21,2-1,1.66-1.15,1.9-1.62,2-2,.1-.39.04-.69,0-1-.26-1.81.07-2.26.08-3.14,0-.41-.06-.72-.08-.86-.36-2.14-.15-4.26-1-7-.38-1.23-.82-2.13-1.8-3.89-1.43-2.55-1.04-1.34-2-3-.14-.24-.42-.75-1-1-.5-.22-.73.11-1.2-.11-.46-.22-.43-.6-.8-.89-.54-.41-1.34-.19-2,0-1.01.29-3.1,1.15-3,2,.07.58,1.08.51,2.8,1.89.67.54,1.1,1.02,1.2,1.11.58.57.99,1.35,1.8,2.89.36.68.68,1.29,1,2,1.05,2.32,2.24,4.97,2.2,8.11-.05,2.94-.07,4.41-.2,4.89-.07.26-.23.82,0,1Z"/>
  <path class="cls-10" d="M16.11,49.87c.78-.21,1.3-.51,2-1,1.66-1.15,1.9-1.62,2-2,.1-.39.04-.69,0-1-.21-1.47-.12-2.97,0-4,.28-2.36.39-2.85.39-2.85.06-.23.15-.6,0-1-.2-.53-.63-.54-1-1-.47-.6-.18-1.14-.39-2.15-.12-.59-.37-1.1-1-2-2.17-3.13-2.45-2.8-4-5,0,0-.49-.56-1-1-1.32-1.13-4.26-1.56-6.61-.85-.32.1-1.13.37-2,1-.67.49-1.01.73-1,1,.03.85,3.4.61,6,2,3.78,2.03,5.43,7.26,5.61,10.85.23,4.55-1.79,8.55-.61,9.15.35.18.9.03,1.61-.15Z"/>
  <path class="cls-20" d="M25.5,18.02c-.83.98-2.34,1.48-3,1-.4-.28-.44-.88,0-4,.41-2.94.63-4.42,1-5,.51-.81.86-.82,5-3,1.98-1.04,4.1-1.82,6-3,.82-.51,1.78-1.15,3-1,.94.12,1.58.65,2,1,2.11,1.78,3.05,5.14,2,7-.26.46-.66.74-1,1-.87.68-2.43,1.48-3,1-.31-.26-.16-.76,0-2,.3-2.38.45-3.57,0-4-.35-.34-1.1-.36-6,2-4.42,2.13-4.78,2.61-5,3-1.25,2.23.49,4.25-1,6Z"/>
  <circle class="cls-16" cx="13.5" cy="31.02" r="1"/>
  <path class="cls-16" d="M22.5,32.02c.08.62,2,1,2,1h0l1-1c.77-.72.98-.74,1-1,.03-.41-.47-.9-1-1-.5-.1-1,.27-2,1-.69.51-1.03.76-1,1Z"/>
  <path class="cls-16" d="M22.24,33.02c.77-.4,1.94.18,2.26,1,.05.14.19.57,0,1-.2.44-.62.61-.9.73-.57.23-1.12.15-1.34.01,0,0-.01,0-.02-.01-.16-.1-.54-.34-.68-.91-.11-.43-.03-.8,0-.91.03-.12.21-.66.68-.91Z"/>
  <polygon class="cls-16" points="28.19 32.02 27.5 34.02 26.13 33.47 27.04 31.51 28.19 32.02"/>
  <path class="cls-16" d="M25.5,35.02h2.32c.04.13.3,1.11-.32,2-.7,1.01-1.91,1-2,1v-3Z"/>
  <path class="cls-16" d="M58.92,15.39c.77-.4,1.94.18,2.26,1,.05.14.19.57,0,1-.2.44-.62.61-.9.73-.57.23-1.12.15-1.34.01,0,0-.01,0-.02-.01-.16-.1-.54-.34-.68-.91-.11-.43-.03-.8,0-.91.03-.12.21-.66.68-.91Z"/>
  <path class="cls-16" d="M56.91,17.02h-2.32c-.04.13-.3,1.11.32,2,.7,1.01,1.91,1,2,1v-3Z"/>
  <path class="cls-16" d="M54.75,16.21c.08.62,2,1,2,1h0l1-1c.77-.72.98-.74,1-1,.03-.41-.47-.9-1-1-.5-.1-1,.27-2,1-.69.51-1.03.76-1,1Z"/>
  <polygon class="cls-16" points="59.78 19.92 59.09 21.92 57.72 21.37 58.63 19.41 59.78 19.92"/>
  <polyline class="cls-16" points="16.43 39.52 18.7 39.23 18.7 42.52 16.43 43.72 16.43 39.1"/>
  <polygon class="cls-16" points="16.78 44.58 18.7 44.26 18.7 46.52 16.78 48.01 16.78 44.58"/>
  <polygon class="cls-2" points="21.5 37.98 23.94 36.6 23.05 39.81 21.5 37.98"/>
  <path class="cls-2" d="M4,27.52c1.01.34,7.03,2.48,10,9,3.12,6.84.42,13.07,0,14"/>
  <polygon class="cls-5" points="36.61 34.02 48.11 28.38 48 30.52 36.86 35.89 36.61 34.02"/>
  <polygon class="cls-5" points="36 26.75 47 21.52 47.63 24.4 36.39 30.01 36 26.75"/>
  <path class="cls-5" d="M62,5.52c.36-.24,2.25,1.54,2,2-.12.21-.67.13-1,0-1-.4-1.26-1.82-1-2Z"/>
  <path class="cls-5" d="M24.5,28.02l5.58,4-.35-1.25s-4.13-3.25-4.43-3.25h-.3"/>
  <path class="cls-14" d="M28,25.52c.07-.66.28-1.5.5-1.5.23,0,.39.94.5,1.5.4,1.98.9,2.14,2,5,1.27,3.3,1.91,4.95,1.5,6.5-.19.71-.55,1.37-.5,2.5.04.98.37,1.72,0,2-.2.15-.42.06-1,0-1.32-.13-1.73.27-2,0-.31-.31.08-.95.5-2.5.18-.65.28-1.27.5-2.5.08-.45.14-.85.5-3.5.1-1.08.15-1.63,0-2-.2-.49-.53-.58-1-1-1.75-1.57-1.52-4.29-1.5-4.5Z"/>
  <path class="cls-21" d="M64.5,25.02c1.1.45,3.88-2.54,5-6,2.34-7.21-4.27-14.23-5-15-.31-.33-2.84-2.97-5-3-.18,0-.79,0-2,0-1.71,0-1.73-.04-2,0-1.75.24-3.16,1.65-3,2,.14.3,1.33-.4,3,0,.43.1,1.07.32,2,1,4.29,3.14,6,7,6,7,3.05,6.82-.53,13.38,1,14Z"/>
  <path class="cls-22" d="M50.5,15.02c1.4-.37,3.14-.97,5-2,1.18-.65,2.18-1.35,3-2,.67.67,1.33,1.33,2,2,1-.67,2-1.33,3-2-.2-.78-.53-1.45-1-2-.43-.51-.62-.5-1-1-.74-.99-.52-1.73-1-2-.32-.18-.94-.14-2.24.89-3.25,1.7-6.5,3.41-9.76,5.11"/>
  <path class="cls-22" d="M42.97,15.29l.16.23,1.4,2c-1.2,1.07-2.87,2.36-5.04,3.5-1.9,1-3.67,1.61-5.09,2-.64-.83-1.27-1.67-1.91-2.5,3.55-1.75,7.11-3.49,10.66-5.24"/>
  <path class="cls-22" d="M14.5,28.02c.31.25.66.58,1,1,.6.73.95,1.46,1.15,2,2.03-.4,4.86-1.21,7.85-3,1.64-.98,2.96-2.04,4-3,.06-.29.09-.63,0-1-.33-1.44-2.03-1.96-2.15-2-3.95,2-7.9,4-11.85,6Z"/>
  <path class="cls-19" d="M1.5,40.02c-.56-1.55-1.09-3.01-1-5,.08-1.92.7-3.32,1-4,.59-1.31,1.3-2.91,3-4,2.02-1.3,4.17-1.08,5-1,3.13.32,5.18,2.21,6,3,2.14,2.04,2.82,4.21,4,8,1.38,4.42,2.07,6.63,1,9-1.12,2.48-3.48,3.72-4,4-.83.44-2.22,1.17-4,1-1.37-.13-2.26-.76-4-2-1.21-.86-3.22-2.33-5-5-.34-.5-1.26-1.94-2-4Z"/>
  <path class="cls-7" d="M44,9.52c-.58.21-1.41.4-2,0-.74-.5-.51-1.54-1-3-.35-1.03-1.09-2.4-2-3-.71-.47-2.1-.87-8,2-4.75,2.31-7.13,3.47-8,5-1.92,3.38.4,5.95-2,9-.33.42-.08,0-4,3-2.87,2.2-3.6,2.88-5,3-.11,0-.06,0-3,0-.85,0-3.54,1-4,1"/>
  <path class="cls-23" d="M31,19.89c-.83.44-1.67.88-2.5,1.32.06.22,1.03,3.89,2,3.81.72-.06,1.49-2.2,1-4-.13-.47-.32-.85-.5-1.13Z"/>
  <path class="cls-15" d="M46.53,12.02l-2.03,1.15,2.03,2.32c.13.15.47.5.96.53.71.05,1.55-.58,1.71-1.6-.89-.8-1.78-1.6-2.67-2.4Z"/>
  <polygon class="cls-17" points="29.73 17.52 39.58 12.3 43.5 15.02 32.71 20.42 29.73 17.52"/>
  <polyline class="cls-17" points="12.74 26 23.69 20.42 26.5 22.02 14.9 28.38"/>
  <path class="cls-17" d="M44.5,9.02c.44-.23,1.13-.58,2-1,2.29-1.1,3.27-1.41,5.07-2.34.56-.29,1.38-.73,2.36-1.34h0c.13-.09.28-.17.44-.25,1.23-.58,2.5-.28,3.14-.08,1.93.58,2.93,1.24,3,2,.15,1.6-3.85,3.6-12,6-1.49-.23-2.47-.7-3-1-.52-.3-.85-.57-1-1-.14-.4-.06-.79,0-1Z"/>
  <path class="cls-2" d="M52,5.52c.93-.69,2.56-1.65,4.5-1.5,4.12.33,6.31,5.4,7,7,2.71,6.28.33,12.55-.5,14.5"/>
  <path class="cls-2" d="M18.5,49.02c4.07-3.92,1.45-11.66,1-13-.48-1.42-2.92-8.66-9-10-1.61-.36-3.04-.2-4,0-.43.08-.95.22-1.5.5-1.46.73-2.2,1.93-2.5,2.5-.67,1.1-1.99,3.6-2,7,0,2.55.73,4.44,1,5.07,1.09,2.56,2.71,3.96,5,5.93,3.05,2.62,4.62,3.98,7,4,2.84.03,4.84-1.85,5-2Z"/>
  <path class="cls-2" d="M48,33.52c.52-2.83.84-7.27-1-12-.4-1.03-3.46-8.91-8-9-1.08-.02-2.39.65-5,2l-4.67,3.28"/>
  <path class="cls-2" d="M52,5.52c.28-.69-.31-1.03,0-2,.32-1.02,1.26-1.57,2-2,0,0,1.42-.83,3-1,2.93-.31,8.31,2.71,11,8,2.14,4.2,2.98,10.52,0,14-.51.6-2.79,3.27-5,3-.36-.04-1.07-.21-2,0-.7.16-1.2.45-2,1-1.96,1.35-2.46,2.01-4,3-1.14.73-1.71,1.09-2,1-1.62-.5.55-6.33-2-13-.85-2.23-1.73-4.53-4-6-1.46-.95-2.99-1.23-3-2,0-.81,1.69-1.48,3-2,2.89-1.14,4.56-.92,5-2Z"/>
  <path class="cls-2" d="M20,46.52l9.28-4.66c.91.32,1.48.19,1.84,0,2.65-1.43,1.17-10.46-1.84-16.49-1.49-2.98-2.88-4.47-4.6-4.85-.75-.16-1.41-.09-1.84,0l-10.93,5.94"/>
  <path class="cls-2" d="M53,30.52c-2.05,2.36-3.77,2.94-5,3-.74.04-1.09-.12-2,0-1.52.21-2.55.93-4,2-3.73,2.76-5.73,4.51-6,4.25-.06-.06-.01-.21,0-.25.58-1.67.12-9.01,0-11-.14-2.21-1.2-6.03-7-11h0"/>
  <path class="cls-2" d="M30.5,42.02c1.83-.83,3.67-1.67,5.5-2.5"/>
  <path class="cls-1" d="M6,36.52c2.6,1.65,3.62,3.87,3,5-.08.15-.48.82-2,1"/>
  <path class="cls-1" d="M6,41.52c.45-.03.89-.52,1-1,.22-.97-1-1.52-1-3,0-.57.18-.84,0-1-.34-.3-1.56.17-2,1-.78,1.47.9,4.08,2,4Z"/>
  <path class="cls-12" d="M7.12,43.23c.6.11,1.22.16,1.76-.18.43-.27.77-.73.85-1.24.03-.19-.05-.41-.26-.46-.18-.04-.43.05-.46.26-.02.1-.04.19-.07.28-.02.05.04-.08,0,0,0,.02-.02.04-.03.05-.02.05-.05.09-.08.13-.01.02-.03.04-.04.06-.03.04.04-.04,0,0s-.07.08-.1.11c-.03.03-.07.06-.1.09.04-.03.02-.01-.01,0-.02.01-.04.03-.06.04-.04.02-.08.05-.12.07-.02,0-.08.04,0,0-.02,0-.04.01-.06.02-.05.02-.1.03-.15.04-.03,0-.05.01-.08.02.05,0-.03,0-.04,0-.13.01-.26,0-.38,0-.08,0-.11-.01-.14-.02-.07-.01-.13-.02-.2-.03-.19-.03-.41.05-.46.26-.04.18.06.42.26.46h0Z"/>
  <path class="cls-12" d="M6.98,40.23c.03.11.06.22.09.34,0,.03.01.06.02.09,0,.01.02.1,0,.04s0,.03,0,.04,0,.08,0,.09c-.01-.02.02-.08,0,0,0,.02-.01.04-.02.06-.02.08.04-.07,0,0-.01.02-.02.04-.03.06s-.02.04-.04.06c-.05.07.05-.06,0,0-.03.04-.07.07-.1.11s-.07.07-.11.1c-.02.02-.04.03-.05.04-.03.03.06-.04,0,0-.08.06-.17.11-.26.16-.06.03.04-.01,0,0-.02,0-.05.02-.07.02-.03,0-.06.01-.09.02-.09.02.08,0-.02,0-.03,0-.12.02-.15,0,.05,0,.06,0,.03,0-.01,0-.03,0-.04,0-.03,0-.06-.02-.08-.02-.19-.06-.42.07-.46.26-.05.21.06.39.26.46.58.19,1.17-.12,1.58-.51.19-.19.36-.43.4-.69.05-.31-.04-.63-.13-.93-.05-.19-.27-.32-.46-.26s-.32.26-.26.46h0Z"/>
  <path class="cls-12" d="M4.98,37.16l.49.96c.15.29.31.58.42.88s.13.59.06.9c-.04.16-.09.32-.15.48-.03.08-.13.21,0,.09.06-.06.07.07,0-.04-.07-.1-.16-.18-.23-.28-.08-.12-.15-.24-.21-.36-.12-.24-.2-.5-.26-.76s-.1-.54-.12-.81c-.01-.14-.02-.29-.02-.43,0-.06-.03-.25,0-.29l-.63-.17c.08.31.14.63.17.95s.02.61.04.92c.03.62.32,1.13.79,1.53.19.17.57.14.63-.17.19-1.08-.11-2.11-.47-3.12-.16-.45-.86-.27-.72.2l.2.71c.13.46.86.27.72-.2l-.2-.71-.72.2c.31.86.64,1.79.47,2.72l.63-.17c-.18-.16-.35-.32-.46-.54-.12-.23-.11-.49-.11-.74,0-.6-.08-1.21-.23-1.79-.07-.27-.43-.37-.63-.17-.23.24-.23.56-.23.88,0,.3.03.6.07.9.08.58.24,1.16.55,1.66.15.25.35.53.61.69.29.18.7.14.9-.15.18-.25.27-.63.33-.92.07-.36.07-.71-.02-1.06-.1-.37-.28-.72-.46-1.06l-.57-1.13c-.22-.43-.87-.05-.65.38h0Z"/>
  <path class="cls-12" d="M6.57,36.92c.3.19.62.34.96.45.14.04.29.07.44.12.12.04.21.08.3.19.36.46.47,1.1.39,1.67l.74-.1c-.26-.72-.63-1.37-1.12-1.95-.13-.16-.4-.13-.53,0-.15.15-.13.37,0,.53.4.48.72,1.04.93,1.62.06.18.22.3.41.27s.3-.18.33-.37c.09-.72-.09-1.51-.52-2.09-.12-.16-.26-.3-.44-.39-.16-.08-.33-.13-.51-.17-.35-.09-.68-.23-.98-.43-.17-.11-.41-.03-.51.13-.11.18-.04.4.13.51h0Z"/>
  <path class="cls-12" d="M6.22,42.07c.21-.05.43-.08.62-.15.25-.09.42-.26.58-.47.12-.16.25-.35.3-.55.06-.26,0-.51-.06-.76-.05-.19-.27-.32-.46-.26s-.31.26-.26.46c.01.04.02.08.03.13s0,.09.03.13c0-.05,0-.06,0-.04,0,.01,0,.03,0,.04,0,.02,0,.04,0,.06,0,.02,0,.05,0,.06,0-.03.01-.08,0-.01,0,0-.01.06-.02.06,0,0,.04-.08,0-.01-.02.04-.04.07-.06.11-.04.07-.1.13-.14.2.02-.03.05-.06,0-.01-.01.01-.02.03-.04.04s-.08.06-.08.08c0-.02.07-.05.01-.01-.02.01-.03.02-.05.03-.06.04.06-.02.01,0-.02,0-.04.01-.06.02-.19.05-.38.09-.56.14s-.32.27-.26.46c.06.2.26.31.46.26h0Z"/>
  <path class="cls-12" d="M6.86,40.22c0,.2-.02.4-.05.59v-.1s0,.1,0,.14c-.02.05-.02.1,0,.15,0,.05.02.1.04.14.05.08.13.15.22.17.1.02.2.02.29-.04.08-.05.16-.13.17-.22.04-.28.07-.56.08-.84,0-.09-.04-.2-.11-.27s-.17-.11-.27-.11c-.21,0-.37.16-.38.38h0Z"/>
  <path class="cls-8" d="M6,37.52c1.87,1.27,2.53,3.08,2,4-.29.49-1.15,1.13-2,1,0,0-.22-.04-.43-.14-1.2-.6-3.14-4.33-1.57-5.86.95-.93,2.81-.7,4,0,1.88,1.11,1.98,3.39,2,4,.02.51.1,2.39-1,3-.61.34-1.34.16-2,0-.96-.23-1.63-.7-2-1"/>
  <path class="cls-6" d="M5,42.52c-.9-.9-.95-.95-1-1-.96-1.01-1.77-4.26,0-6,1.18-1.16,2.85-1.01,3-1,2.22.22,3.57,2.41,4,4,.66,2.44-.32,5.58-2,6-.94.23-2.27-.33-3-1-.06-.05-.06-.06-1-1Z"/>
  <path class="cls-3" d="M3,30.52c.03-.13,3.95-.29,7,2,3.53,2.65,3.92,7.11,4,8,.08.9.53,5.97-2,7-1.67.68-4.03-.46-4-1,.02-.31.81-.25,2-1,1.04-.66,1.68-1.5,2-2,.78-1.21.93-2.37,1-3,.31-2.63-.78-4.62-1-5-.28-.49-1.2-2.05-3-3-.53-.28-.68-.26-3-1-2.01-.64-3.01-.95-3-1Z"/>
  <path class="cls-4" d="M7,45.52c-.75-.34-3-1.49-4-4-1.33-3.34.09-7.84,2.5-8.5,1.9-.52,4.34,1.37,4.5,1.5.57.45.94.93,1,1,.59.76.87,1.51,1,2"/>
  <path class="cls-9" d="M26,17.52c-.15-.17-.04-.29,0-2,.05-2.24-.15-2.45,0-3,.37-1.38,2.01-1.68,5-3,4.4-1.93,6.32-3.66,7-3,.2.2.02.34,0,3,0,.71,0,2,0,2h0c-11.74,6.28-11.83,6.19-12,6Z"/>
</svg>