<?xml version="1.0" encoding="UTF-8"?>
<svg id="Lag_1" xmlns="http://www.w3.org/2000/svg" xmlns:xlink="http://www.w3.org/1999/xlink" viewBox="0 0 26.15 23.98">
  <defs>
    <style>
      .cls-1, .cls-2, .cls-3, .cls-4, .cls-5, .cls-6, .cls-7, .cls-8, .cls-9, .cls-10, .cls-11, .cls-12, .cls-13, .cls-14, .cls-15, .cls-16 {
        stroke-miterlimit: 10;
      }

      .cls-1, .cls-2, .cls-3, .cls-4, .cls-5, .cls-6, .cls-8, .cls-9, .cls-10, .cls-11, .cls-13, .cls-15, .cls-16 {
        fill: none;
      }

      .cls-1, .cls-2, .cls-4, .cls-7, .cls-12, .cls-14 {
        stroke: #000;
      }

      .cls-1, .cls-7, .cls-14, .cls-16 {
        stroke-width: .5px;
      }

      .cls-3 {
        stroke: url(#Ikke-navngivet_forløb_10);
      }

      .cls-4, .cls-5, .cls-6, .cls-11, .cls-12 {
        stroke-width: .75px;
      }

      .cls-5 {
        stroke: url(#Ikke-navngivet_forløb_10-2);
      }

      .cls-6 {
        stroke: url(#Ikke-navngivet_forløb_10-4);
      }

      .cls-7 {
        fill: url(#Ikke-navngivet_forløb_10-6);
      }

      .cls-8 {
        stroke: #7acbed;
        stroke-width: .25px;
      }

      .cls-17 {
        fill: #fdfbda;
      }

      .cls-9 {
        stroke: url(#Ikke-navngivet_forløb_8-2);
      }

      .cls-10 {
        stroke: url(#Ikke-navngivet_forløb_8-3);
      }

      .cls-18 {
        fill: #2d182b;
      }

      .cls-11 {
        stroke: url(#Ikke-navngivet_forløb_10-3);
      }

      .cls-12 {
        fill: #3c2040;
      }

      .cls-13 {
        stroke: #eaeabf;
      }

      .cls-14 {
        fill: url(#Ikke-navngivet_forløb_10-7);
      }

      .cls-15 {
        stroke: url(#Ikke-navngivet_forløb_8);
      }

      .cls-16 {
        stroke: url(#Ikke-navngivet_forløb_10-5);
      }

      .cls-19 {
        fill: #816f6e;
      }

      .cls-20 {
        fill: #716464;
      }
    </style>
    <linearGradient id="Ikke-navngivet_forløb_10" data-name="Ikke-navngivet forløb 10" x1="17.38" y1="22.12" x2="25.7" y2="22.12" gradientTransform="translate(0 27.26) scale(1 -1)" gradientUnits="userSpaceOnUse">
      <stop offset="0" stop-color="#619ebe"/>
      <stop offset="1" stop-color="#8690b8"/>
    </linearGradient>
    <linearGradient id="Ikke-navngivet_forløb_10-2" data-name="Ikke-navngivet forløb 10" x1="17.51" y1="22.54" x2="25.29" y2="22.54" xlink:href="#Ikke-navngivet_forløb_10"/>
    <linearGradient id="Ikke-navngivet_forløb_10-3" data-name="Ikke-navngivet forløb 10" x1="22.17" y1="20.24" x2="25.59" y2="20.24" xlink:href="#Ikke-navngivet_forløb_10"/>
    <linearGradient id="Ikke-navngivet_forløb_10-4" data-name="Ikke-navngivet forløb 10" x1="17.88" y1="23.74" x2="18.88" y2="23.74" xlink:href="#Ikke-navngivet_forløb_10"/>
    <linearGradient id="Ikke-navngivet_forløb_10-5" data-name="Ikke-navngivet forløb 10" x1="22.78" y1="24.53" x2="23.98" y2="24.53" xlink:href="#Ikke-navngivet_forløb_10"/>
    <linearGradient id="Ikke-navngivet_forløb_8" data-name="Ikke-navngivet forløb 8" x1=".19" y1="9.39" x2="19.22" y2="9.39" gradientTransform="translate(0 27.26) scale(1 -1)" gradientUnits="userSpaceOnUse">
      <stop offset="0" stop-color="#878ba7"/>
      <stop offset="1" stop-color="#3cadce"/>
    </linearGradient>
    <linearGradient id="Ikke-navngivet_forløb_8-2" data-name="Ikke-navngivet forløb 8" x1="5.81" y1="5.14" x2="15.05" y2="5.14" xlink:href="#Ikke-navngivet_forløb_8"/>
    <linearGradient id="Ikke-navngivet_forløb_8-3" data-name="Ikke-navngivet forløb 8" x1=".25" y1="9.33" x2="14" y2="9.33" xlink:href="#Ikke-navngivet_forløb_8"/>
    <linearGradient id="Ikke-navngivet_forløb_10-6" data-name="Ikke-navngivet forløb 10" x1="19.86" y1="12.22" x2="24.47" y2="12.22" xlink:href="#Ikke-navngivet_forløb_10"/>
    <linearGradient id="Ikke-navngivet_forløb_10-7" data-name="Ikke-navngivet forløb 10" x1="19.41" y1="22.33" x2="23.31" y2="22.33" xlink:href="#Ikke-navngivet_forløb_10"/>
  </defs>
  <g id="Lag_3">
    <path class="cls-3" d="M17.88,3.52s.74-.76,1-1c.63-.57,1.76-1.12,3-1,.15.01,2.16.24,3,2,.65,1.35.14,2.66,0,3-.09.22-.65,1.46-2,2-2.12.84-4.73-.65-5-2v-3h0Z"/>
  </g>
  <g id="Lag_14">
    <path class="cls-12" d="M14.88,2.73c.13-.5,1.07-.31,2-1.21.54-.53.71-1.05,1-1,.27.04.42.55.5.98-.57,1.14-1.14,2.28-1.7,3.42-1.28-.12-2.04-1.29-1.8-2.19Z"/>
  </g>
  <g id="Lag_4">
    <path class="cls-5" d="M17.88,3.52c.05-.38.22-1.34,1-2,1.19-1.01,3-.67,4,0,.46.31.76.68,1,1,.36.46.86,1.11,1,2,.15.98-.15,2.15-1,3-1.23,1.23-2.83,1.02-3,1"/>
    <path class="cls-11" d="M22.38,8.02h0c1-.67,2-1.33,3-2"/>
    <line class="cls-6" x1="18.88" y1="3.52" x2="17.88" y2="3.52"/>
    <polyline class="cls-16" points="22.88 2.52 23.61 2.83 23.88 2.94"/>
  </g>
  <g id="Lag_12">
    <path class="cls-13" d="M10.38,5.72c.39-.7.78-1.4,1.17-2.1.53-.95.92-1.12,1.17-1.1,0,0,.24.02,1.17,1.1.38.32.77.69,1.17,1.1.61.64.91.96,1.14,1.36.36.63.26.9.7,1.44.19.23.37.4.5.5"/>
    <polyline class="cls-13" points="16.88 6.52 17.2 7.11 16.15 7.54"/>
  </g>
  <g id="Lag_5">
    <path class="cls-18" d="M8.88,5.52c1.73.28,1.84,1.48,4.5,2.5,2.34.89,3.08.28,4,1,2.3,1.81,2.25,9.36-2.5,12.5-3.41,2.26-8.14,1.5-11-1-.6-.53-2.8-2.6-3-6-.2-3.32,1.64-5.58,2-6,.31-.36,3-3.49,6-3Z"/>
  </g>
  <g id="Lag_7">
    <path class="cls-15" d="M.88,13.02c-2.15,10.39,14.39,12.6,17.88,3.89"/>
    <path class="cls-9" d="M5.88,22.52c1.28.17,3,.27,5,0,1.6-.22,2.95-.61,4-1"/>
  </g>
  <g id="Lag_9">
    <path class="cls-10" d="M.88,12.52c-.18,1.15-.39,3.66,1,6,2.09,3.52,6.95,5.24,12,4"/>
  </g>
  <g id="Lag_6">
    <path class="cls-20" d="M.88,12.52c-.52-4.02,5.93-7.91,9-7,.8.24,1.37.8,3.5,1.5.93.31,1.53.43,2,1,.69.84.56,2.01.5,2.5-.28,2.41-2.71,6.57-7,7-3.52.35-7.61-1.97-8-5Z"/>
  </g>
  <g id="Lag_13">
    <path class="cls-8" d="M15.38,7.68c1,.31,1.85-.12,2-.66.12-.46-.27-.92-.34-1"/>
  </g>
  <g id="Lag_8">
    <path class="cls-17" d="M4.38,9.02c.67-1.57,3.25-1.87,4-1,.55.63.07,1.81,0,2-.47,1.18-1.86,2.45-3,2-.98-.39-1.46-1.93-1-3Z"/>
  </g>
  <g id="Lag_11">
    <path class="cls-19" d="M10.88,5.02c.03-.19.21-.26.5-.6.65-.74.89-1.69,1-2.4.34.61.97,1.58,2,2.4,1.12.9,2.2,1.22,2.82,1.34-.15.1-.57.41-.82,1.06-.2.52-.18.98-.17,1.2-4.44-1.67-5.4-2.52-5.33-3Z"/>
  </g>
  <g id="Lag_1-2" data-name="Lag_1">
    <path class="cls-2" d="M16.88,8.52c2.47,1.57,3.49,8.06,0,12-2.69,3.04-7.36,3.78-11,2C1.84,20.54-.45,15.67.88,11.52c1.37-4.3,6.24-6.85,9-6,1.03.32,1.55,1.04,4,2,1.97.77,2.33.58,3,1Z"/>
    <path class="cls-2" d="M18.88,1.35c-.85-.81-1.42-.91-1.8-.83-.53.11-.72.59-1.8,1.67-.36.36-.68.64-.9.83"/>
    <path class="cls-7" d="M22.88,16.52c-1.15,1.69-3.26,2.69-3,4,.1.5.55.96,1,1,1.35.12,2.71-3.25,2.97-3.92,0,0,.02-.04.03-.08.52-1.37.93-3.92.17-8.97l-.85.22c1.23,4.12.6,6.4-.32,7.75Z"/>
    <path class="cls-1" d="M18.88,8.52c-2.05-1.46-2.02-4.31-1-6,.12-.21,1.13-1.8,3-2,1.43-.15,2.5.63,3,1,.49.36,1.82,1.33,2,3,.17,1.56-.76,2.72-1,3-1.25,1.45-3.93,2.48-6,1Z"/>
    <path class="cls-1" d="M19.67,2.47c1.66-1.21,4.42.2,4.69,2.09.18,1.26-.77,2.61-1.88,3.14-1.29.62-2.91.14-3.75-1.05-.73-1.03-.74-2.43-.03-3.52.32-.22.65-.44.97-.66Z"/>
    <polyline class="cls-14" points="23.31 7.13 20.26 2.31 19.41 3.02 22.6 7.54"/>
  </g>
  <g id="Lag_10">
    <path class="cls-4" d="M9.88,5.25c.29-.85.69-1.45.98-1.83.35-.45.57-.73.98-.92.9-.42,1.88-.03,1.95,0,.67.27.83.64,1.95,1.83.38.4.72.7.98.92l.6,1.09.06,1.68v.61"/>
  </g>
</svg>