<?xml version="1.0" encoding="UTF-8"?>
<svg xmlns="http://www.w3.org/2000/svg" xmlns:xlink="http://www.w3.org/1999/xlink" viewBox="0 0 145.69 137.46">
  <defs>
    <style>
      .cls-1 {
        stroke: url(#Ikke-navngivet_forløb_6);
      }

      .cls-1, .cls-2, .cls-3, .cls-4, .cls-5, .cls-6, .cls-7, .cls-8, .cls-9, .cls-10, .cls-11, .cls-12, .cls-13, .cls-14, .cls-15, .cls-16 {
        stroke-miterlimit: 10;
      }

      .cls-1, .cls-2, .cls-3, .cls-4, .cls-5, .cls-6, .cls-7, .cls-8, .cls-9, .cls-11, .cls-12, .cls-15, .cls-16 {
        fill: none;
      }

      .cls-2, .cls-3, .cls-4, .cls-10, .cls-13, .cls-14 {
        stroke: #000;
      }

      .cls-2, .cls-9, .cls-10, .cls-14 {
        stroke-width: .5px;
      }

      .cls-4, .cls-5, .cls-11, .cls-12, .cls-13 {
        stroke-width: .75px;
      }

      .cls-5 {
        stroke: url(#Ikke-navngivet_forløb_10-2);
      }

      .cls-6 {
        stroke: url(#Ikke-navngivet_forløb_35);
      }

      .cls-7 {
        stroke: url(#Ikke-navngivet_forløb_35-2);
      }

      .cls-8 {
        stroke: #7acbed;
        stroke-width: .25px;
      }

      .cls-9 {
        stroke: url(#Ikke-navngivet_forløb_10-4);
      }

      .cls-10 {
        fill: url(#Ikke-navngivet_forløb_6-3);
      }

      .cls-17 {
        fill: #fdfbda;
      }

      .cls-11 {
        stroke: url(#Ikke-navngivet_forløb_10);
      }

      .cls-18 {
        fill: #2d182b;
      }

      .cls-12 {
        stroke: url(#Ikke-navngivet_forløb_10-3);
      }

      .cls-13 {
        fill: #3c2040;
      }

      .cls-14 {
        fill: url(#Ikke-navngivet_forløb_6-2);
      }

      .cls-15 {
        stroke: #eaeabf;
      }

      .cls-16 {
        stroke: url(#Ikke-navngivet_forløb_35-3);
      }

      .cls-19 {
        fill: #816f6e;
      }

      .cls-20 {
        fill: #716464;
      }
    </style>
    <linearGradient id="Ikke-navngivet_forløb_6" data-name="Ikke-navngivet forløb 6" x1="87" y1="115.11" x2="95.32" y2="115.11" gradientUnits="userSpaceOnUse">
      <stop offset="0" stop-color="#619ebe"/>
      <stop offset="1" stop-color="#8690b8"/>
    </linearGradient>
    <linearGradient id="Ikke-navngivet_forløb_10" data-name="Ikke-navngivet forløb 10" x1="87.13" y1="114.7" x2="94.91" y2="114.7" gradientUnits="userSpaceOnUse">
      <stop offset="0" stop-color="#619ebe"/>
      <stop offset="1" stop-color="#8690b8"/>
    </linearGradient>
    <linearGradient id="Ikke-navngivet_forløb_10-2" data-name="Ikke-navngivet forløb 10" x1="91.79" y1="117" x2="95.21" y2="117" xlink:href="#Ikke-navngivet_forløb_10"/>
    <linearGradient id="Ikke-navngivet_forløb_10-3" data-name="Ikke-navngivet forløb 10" x1="87.5" y1="113.5" x2="88.5" y2="113.5" xlink:href="#Ikke-navngivet_forløb_10"/>
    <linearGradient id="Ikke-navngivet_forløb_10-4" data-name="Ikke-navngivet forløb 10" x1="92.4" y1="112.71" x2="93.6" y2="112.71" xlink:href="#Ikke-navngivet_forløb_10"/>
    <linearGradient id="Ikke-navngivet_forløb_35" data-name="Ikke-navngivet forløb 35" x1="69.81" y1="127.84" x2="88.85" y2="127.84" gradientUnits="userSpaceOnUse">
      <stop offset="0" stop-color="#878ba7"/>
      <stop offset="1" stop-color="#3cadce"/>
    </linearGradient>
    <linearGradient id="Ikke-navngivet_forløb_35-2" data-name="Ikke-navngivet forløb 35" x1="75.43" y1="132.1" x2="84.67" y2="132.1" xlink:href="#Ikke-navngivet_forløb_35"/>
    <linearGradient id="Ikke-navngivet_forløb_35-3" data-name="Ikke-navngivet forløb 35" x1="69.87" y1="127.91" x2="83.62" y2="127.91" xlink:href="#Ikke-navngivet_forløb_35"/>
    <linearGradient id="Ikke-navngivet_forløb_6-2" data-name="Ikke-navngivet forløb 6" x1="89.48" y1="125.02" x2="94.61" y2="125.02" xlink:href="#Ikke-navngivet_forløb_6"/>
    <linearGradient id="Ikke-navngivet_forløb_6-3" data-name="Ikke-navngivet forløb 6" x1="89.03" y1="114.9" x2="92.93" y2="114.9" xlink:href="#Ikke-navngivet_forløb_6"/>
  </defs>
  <g id="Lag_3">
    <path class="cls-1" d="M87.5,113.5s.74-.76,1-1c.63-.57,1.76-1.12,3-1,.15.01,2.16.24,3,2,.65,1.35.14,2.66,0,3-.09.22-.65,1.46-2,2-2.12.84-4.73-.65-5-2,0-.03,0,0,0-2,0-.2,0-1,0-1h0Z"/>
  </g>
  <g id="Lag_14">
    <path class="cls-13" d="M84.5,112.71c.13-.5,1.07-.31,2-1.21.54-.53.71-1.05,1-1,.27.04.42.55.5.98-.57,1.14-1.14,2.28-1.7,3.42-1.28-.12-2.04-1.29-1.8-2.19Z"/>
  </g>
  <g id="Lag_4">
    <path class="cls-11" d="M87.5,113.5c.05-.38.22-1.34,1-2,1.19-1.01,3-.67,4,0,.46.31.76.68,1,1,.36.46.86,1.11,1,2,.15.98-.15,2.15-1,3-1.23,1.23-2.83,1.02-3,1"/>
    <path class="cls-5" d="M92,118h0c1-.67,2-1.33,3-2"/>
    <line class="cls-12" x1="88.5" y1="113.5" x2="87.5" y2="113.5"/>
    <polyline class="cls-9" points="92.5 112.5 93.23 112.81 93.5 112.92"/>
  </g>
  <g id="Lag_12">
    <path class="cls-15" d="M80,115.7c.39-.7.78-1.4,1.17-2.1.53-.95.92-1.12,1.17-1.1,0,0,.24.02,1.17,1.1.38.32.77.69,1.17,1.1.61.64.91.96,1.14,1.36.36.63.26.9.7,1.44.19.23.37.4.5.5"/>
    <polyline class="cls-15" points="86.5 116.5 86.82 117.09 85.77 117.52"/>
  </g>
  <g id="Lag_5">
    <path class="cls-18" d="M78.5,115.5c1.73.28,1.84,1.48,4.5,2.5,2.34.89,3.08.28,4,1,2.3,1.81,2.25,9.36-2.5,12.5-3.41,2.26-8.14,1.5-11-1-.6-.53-2.8-2.6-3-6-.2-3.32,1.64-5.58,2-6,.31-.36,3-3.49,6-3Z"/>
  </g>
  <g id="Lag_7">
    <path class="cls-6" d="M70.5,123c-2.15,10.39,14.39,12.6,17.88,3.89"/>
    <path class="cls-7" d="M75.5,132.5c1.28.17,3,.27,5,0,1.6-.22,2.95-.61,4-1"/>
  </g>
  <g id="Lag_9">
    <path class="cls-16" d="M70.5,122.5c-.18,1.15-.39,3.66,1,6,2.09,3.52,6.95,5.24,12,4"/>
  </g>
  <g id="Lag_6">
    <path class="cls-20" d="M70.5,122.5c-.52-4.02,5.93-7.91,9-7,.8.24,1.37.8,3.5,1.5.93.31,1.53.43,2,1,.69.84.56,2.01.5,2.5-.28,2.41-2.71,6.57-7,7-3.52.35-7.61-1.97-8-5Z"/>
  </g>
  <g id="Lag_13">
    <path class="cls-8" d="M85,117.66c1,.31,1.85-.12,2-.66.12-.46-.27-.92-.34-1"/>
  </g>
  <g id="Lag_8">
    <path class="cls-17" d="M74,119c.67-1.57,3.25-1.87,4-1,.55.63.07,1.81,0,2-.47,1.18-1.86,2.45-3,2-.98-.39-1.46-1.93-1-3Z"/>
  </g>
  <g id="Lag_11">
    <path class="cls-19" d="M80.5,115c.03-.19.21-.26.5-.6.65-.74.89-1.69,1-2.4.34.61.97,1.58,2,2.4,1.12.9,2.2,1.22,2.82,1.34-.15.1-.57.41-.82,1.06-.2.52-.18.98-.17,1.2-4.44-1.67-5.4-2.52-5.33-3Z"/>
  </g>
  <g id="Lag_1">
    <path class="cls-3" d="M86.5,118.5c2.47,1.57,3.49,8.06,0,12-2.69,3.04-7.36,3.78-11,2-4.04-1.98-6.33-6.85-5-11,1.37-4.3,6.24-6.85,9-6,1.03.32,1.55,1.04,4,2,1.97.77,2.33.58,3,1Z"/>
    <path class="cls-3" d="M88.5,111.33c-.85-.81-1.42-.91-1.8-.83-.53.11-.72.59-1.8,1.67-.36.36-.68.64-.9.83"/>
    <path class="cls-14" d="M93.5,122.5c-.1,1.37-.19,2.64-1,4-1.24,2.09-3.24,2.8-3,4,.1.5.55.96,1,1,1.37.13,2.7-3.25,3-4,.48-1.21,1.42-3.7,1-7l-.83-1.97-.85.22.67,3.75Z"/>
    <path class="cls-2" d="M88.5,118.5c-2.05-1.46-2.02-4.31-1-6,.12-.21,1.13-1.8,3-2,1.43-.15,2.5.63,3,1,.49.36,1.82,1.33,2,3,.17,1.56-.76,2.72-1,3-1.25,1.45-3.93,2.48-6,1Z"/>
    <path class="cls-2" d="M89.29,112.45c1.66-1.21,4.42.2,4.69,2.09.18,1.26-.77,2.61-1.88,3.14-1.17.57-2.95.43-3.75-1.05-.79-1.47-.14-3.4.94-4.19Z"/>
    <polyline class="cls-10" points="92.93 117.11 89.88 112.29 89.03 113 92.22 117.52"/>
  </g>
  <g id="Lag_10">
    <path class="cls-4" d="M79.5,115.23c.29-.85.69-1.45.98-1.83.35-.45.57-.73.98-.92.9-.42,1.88-.03,1.95,0,.67.27.83.64,1.95,1.83.38.4.72.7.98.92l.6,1.09.06,1.68v.61"/>
  </g>
</svg>