<?xml version="1.0" encoding="UTF-8"?>
<svg xmlns="http://www.w3.org/2000/svg" xmlns:xlink="http://www.w3.org/1999/xlink" viewBox="0 0 839 999">
  <defs>
    <style>
      .cls-1 {
        stroke: #fff;
      }

      .cls-1, .cls-2, .cls-3, .cls-4, .cls-5, .cls-6, .cls-7, .cls-8 {
        stroke-miterlimit: 10;
      }

      .cls-1, .cls-4, .cls-9 {
        fill: #020000;
      }

      .cls-2, .cls-3, .cls-5, .cls-7, .cls-8 {
        fill: none;
      }

      .cls-2, .cls-4, .cls-5, .cls-6 {
        stroke: #000;
      }

      .cls-10 {
        fill: #050000;
      }

      .cls-3 {
        stroke: #a50dac;
      }

      .cls-3, .cls-5, .cls-6, .cls-7 {
        stroke-width: 2px;
      }

      .cls-11 {
        fill: #020202;
      }

      .cls-6, .cls-12 {
        fill: #f4efef;
      }

      .cls-13 {
        fill: #333;
      }

      .cls-7 {
        stroke: #a50dc0;
      }

      .cls-14 {
        fill: #070000;
      }

      .cls-8 {
        stroke: url(#Ikke-navngivet_forløb_82);
        stroke-width: 8px;
      }
    </style>
    <linearGradient id="Ikke-navngivet_forløb_82" data-name="Ikke-navngivet forløb 82" x1="159.39" y1="361.91" x2="830.14" y2="361.91" gradientUnits="userSpaceOnUse">
      <stop offset="0" stop-color="#a50dc0"/>
      <stop offset="1" stop-color="#5e00d4"/>
    </linearGradient>
  </defs>
  <g id="hals">
    <path class="cls-12" d="M418.48,663.66c.12.14.25.27.38.41.06.06.13.1.19.15,5.79,5.48,13.17,7.45,20.78,9.02,8.29,1.71,16.43,3.64,24.54,6.07,12.96,3.88,25.75,8.36,38.78,12.01,11.27,2.41,22.56,4.69,33.95,6.49.94.15,1.89.29,2.84.43,10.01.56,20.06-.48,28.61-4.96,6.86-3.59,10.96-8.56,14.44-15.38,2.65-5.19,5.18-10.26,8.68-14.85.15-1.5.27-2.87.35-4.08,4.84-6.64,17.95-26.46,17-54-1.45-42.16-34.57-66.29-38.68-69.18-2.63,3.84-19.82,28.02-52.32,32.18-35.84,4.59-60.11-19.03-62.9-21.85-8.92,15.3-18.2,33.95-26.1,55.85-4.73,13.13-8.3,25.56-11,37-1.31,4.58-3.09,12.89-2.07,23.11.89.17,1.76.66,2.55,1.55Z"/>
  </g>
  <g id="trøje">
    <path class="cls-1" d="M544.48,594.2c-3.49,1.1-7.08,1.98-10.73,2.67-.69.57-1.39,1.13-2.09,1.67-.18.14-.35.26-.53.39,4.78-.98,9.32-2.48,13.35-4.73Z"/>
    <path class="cls-9" d="M771.5,685.5l-15-30-25-35-20-20-47-15-52-11-36-45-12.24,21.86c2.03-.25,4.26.26,6.47,1.39,2.07,1.06,2.68,3.55,2.3,5.65,0,.01,0,.03,0,.04.46.73.74,1.61.75,2.6.15,9.16-3.49,17.01-9.89,22.84.84,1.1,1.18,2.52.67,4.04.84,2.08.55,4.71-1.77,6.35-5.65,4.01-10.94,8.5-17.01,11.91-1.72.96-3.38.82-4.7.08-1.81.61-3.66,1.14-5.55,1.59-10.39,2.43-21.19,2.74-31.81,2.57-9.38-.15-18.82-.46-28.06-2.22-2.63-.5-5.31-1.15-7.94-1.99-4.94-.96-9.52-2.8-12.67-6.6-.86-.71-1.67-1.46-2.44-2.27-6.72-7.09-7.7-16.46-6.01-25.72.34-1.86,1.42-2.94,2.73-3.38-.73-5.62-1.68-11.21-2.35-16.84-.24-2.07.92-3.54,2.53-4.28-.97-1.95-.53-4.07.61-5.61l-4.62-4.01-80,80-46,23-27,26-12,31-22.5,36.45v119.06l466.5-22.51,53.25-122.63-6.25-22.37Z"/>
    <path class="cls-1" d="M495.44,572.09c.89-.18,1.77-.37,2.66-.55l-6.53-.46c.88.49,1.78.96,2.67,1.41.36-.17.76-.3,1.2-.39Z"/>
  </g>
  <g id="skulder">
    <path class="cls-3" d="M610.67,572.67c76.43,8.8,106.61,31.68,119.83,50.83.48.7.98,1.45,2,3,21.7,33.03,35.39,57.96,44,75"/>
    <path class="cls-7" d="M446.6,571.62c-4.2,9.73-3.59,16.45-2.1,20.88,8.63,25.6,68.03,38.42,101,14,9.84-7.29,15.38-16.45,18.38-22.62"/>
  </g>
  <g id="Lag_14">
    <path class="cls-7" d="M409.62,610.34c-12.71,5.28-26.48,7.4-39.83,10.42-13.67,3.1-27.13,7.01-39.56,13.63-11.41,6.08-22.14,14.16-30.27,24.28s-12.73,22.99-17.98,35.06c-6.24,14.35-14.29,27.87-23.63,40.41"/>
  </g>
  <g id="hoved">
    <path class="cls-6" d="M522,261c47.19,9.05,66.73,67.29,72,83,10.78,32.12,10.33,68.42,5,93-1.24,5.73-4.17,17.4-8,37-6.29,32.19-4.34,31.26-7,39-8.53,24.84-33.98,50.21-66,54-19.87,2.35-35.33-4.43-41-7-22.93-10.4-34.39-28.57-42-41-11.01-17.99-18.6-39.4-22-73-5.54-54.78-11.23-110.96,26-151,4.12-4.43,40.26-42.2,83-34Z"/>
  </g>
  <g id="_øjne2" data-name="øjne2">
    <path class="cls-11" d="M481.12,402.72c-1.62-3.11-4.02-5.77-6.97-7.69-3.3-2.15-7.25-3.16-11.09-3.84-7.69-1.36-15.83-.93-22.81,2.82-3.51,1.89-6.52,4.57-8.75,7.87-1.08,1.61,1.52,3.11,2.59,1.51,4.82-7.15,13.57-10.1,21.88-9.94,4.58.09,9.46.86,13.72,2.6,3.85,1.58,6.93,4.49,8.84,8.17.89,1.71,3.48.2,2.59-1.51h0Z"/>
    <path d="M583.88,402.47c-1.62-3.11-4.02-5.77-6.97-7.69-3.3-2.15-7.25-3.16-11.09-3.84-7.69-1.36-15.83-.93-22.81,2.82-3.51,1.89-6.52,4.57-8.75,7.87-1.08,1.61,1.52,3.11,2.59,1.51,4.82-7.15,13.57-10.1,21.88-9.94,4.58.09,9.46.86,13.72,2.6,3.85,1.58,6.93,4.49,8.84,8.17.89,1.71,3.48.2,2.59-1.51h0Z"/>
    <path d="M548.5,395.5c-.14.31-1.19,2.66,0,5,1.08,2.11,3.54,3.33,6.12,2.97.3.11,3.8,1.28,6.88-.97,2.17-1.59,3.3-4.28,2.95-7-.37-.67-1.26-2.04-2.95-3-1.58-.9-3.04-.96-4-1-.56-.02-2.63-.07-5,1-2.02.91-3.32,2.21-4,3Z"/>
    <path class="cls-10" d="M448.37,397.26c-.14.31-1.19,2.66,0,5,1.08,2.11,3.54,3.33,6.12,2.97.3.11,3.8,1.28,6.88-.97,2.17-1.59,3.3-4.28,2.95-7-.37-.67-1.26-2.04-2.95-3-1.58-.9-3.04-.96-4-1-.56-.02-2.63-.07-5,1-2.02.91-3.32,2.21-4,3Z"/>
    <path class="cls-4" d="M464.07,505.64c5.93,4.21,15.61,9.8,28.58,12.18,5.03.92,9.63,1.19,13.62,1.13,6.26-.99,15.11-3.1,24.78-7.97,11.04-5.56,18.68-12.45,23.32-17.36-4.75-1.37-11.95-2.86-20.74-2.4-10.15.53-18.06,3.41-22.85,5.59-5.34-.69-12.52-1.05-20.82.15-11.44,1.66-20.27,5.6-25.88,8.67Z"/>
    <path class="cls-11" d="M480.58,446.06c-1.14,3.94-2.34,8.17-1.46,12.29.65,3.03,2.57,6.02,5.46,7.33,1.55.7,3.24.8,4.9.5,2.01-.37,3.71-1.52,5.66-1.98,2.2-.52,2.96,1.35,3.69,3.01.64,1.48,1.41,2.77,2.69,3.8,2.55,2.04,6.03,2.4,8.92.88,1.37-.72,2.56-1.84,3.33-3.19.37-.64.55-1.41,1-2,.81-1.08,2.15-.6,3.17-.14,1.36.62,2.6,1.43,4.07,1.79,1.37.34,2.79.38,4.18.19,2.75-.38,5.41-1.7,7.31-3.74,6.31-6.74.97-15.97-3.45-22.06-.56-.77-1.86-.03-1.3.76,3.79,5.22,9.03,13.18,4.36,19.44-1.62,2.17-4.16,3.61-6.82,4.07-1.28.22-2.63.2-3.89-.11-1.53-.37-2.8-1.27-4.23-1.87-1.07-.44-2.31-.75-3.41-.22-1.37.65-1.64,2.1-2.36,3.29-1.81,2.97-5.7,4.09-8.79,2.49-1.44-.75-2.48-1.93-3.16-3.39-.55-1.19-.96-2.51-1.89-3.48-2.5-2.59-5.9.11-8.61.82-4.15,1.08-7.6-1.3-8.99-5.2-1.5-4.2-.12-8.78,1.07-12.88.27-.93-1.18-1.33-1.45-.4h0Z"/>
    <path class="cls-2" d="M551.19,487.11c2.73-.84,6.25,1.13,8.3,4.35,2.07,3.24,1.79,6.41,1.75,6.81"/>
    <path class="cls-2" d="M462.46,498.08c-1.88.74-3.17,4.26-3.14,8.08.03,3.84,1.37,6.39,1.54,6.7"/>
  </g>
  <g id="KNOLD">
    <path class="cls-13" d="M441.33,549.91c.22,6.11,1.03,8.27,1.17,11.53.14,3.25-.38,7.94-3.51,13.84-.84,1.28-2,2.88-3.51,4.61,0,0,0,0,0,0-1.39,1.62-2,2.49-4.67,4.61-3.17,2.51-6.99,13.72-11.31,19.99-3.33,4.82-7.18,7.05-14,11-9.01,5.21-30.82,17.84-47.14,13.99-28.24-6.66-50.4-64.72-28.04-103.8,9.84-17.21,31.98-36.06,57.26-33.45,0,0,23.51,2.43,47.91,36.91,2.14,3.03,5.37,7.59,5.84,13.84.16,2.2-.15,2.79,0,6.92Z"/>
  </g>
  <g id="Lag_13">
    <path class="cls-9" d="M373.53,494.69c18.67,20.06,28.28,46.85,47.88,66.18,5.1,5.03,10.83,9.45,17.18,12.78,1.71.9,3.23-1.69,1.51-2.59-23.99-12.59-35.87-38.4-50.17-59.97-4.31-6.5-8.96-12.8-14.28-18.52-1.32-1.42-3.44.71-2.12,2.12h0Z"/>
  </g>
  <g id="_øjnbryn" data-name="øjnbryn">
    <path class="cls-14" d="M532.54,375.71c4.2-2.13,10.3-4.66,18-6,9.18-1.6,16.93-.88,22,0,2.03.78,5.07,2.24,8,5,4.74,4.46,6.4,9.65,7,12,.38-2.16,1.15-8.27-2-15-3.08-6.57-8.1-9.87-10-11-4.62-1.54-11.55-3.22-20-3-13.21.35-23.07,5.15-28,8,1.67,3.33,3.33,6.67,5,10Z"/>
    <path class="cls-9" d="M421.37,375.71c2.33-2.14,14.19-12.63,32.17-12,15.98.56,26.34,9.54,29,12,1.91-3.33,3.82-6.67,5.72-10-3.11-2.85-10.09-8.48-20.72-11-11.54-2.73-20.98-.29-25,1-.69.22-1.73.56-3,1-3.89,1.34-7.22,2.66-8,3-4.66,2.05-8.04,8.9-10,14"/>
  </g>
  <g id="Lag_10">
    <path class="cls-13" d="M527,250.5c.22-.17.55-.43.98-.73.61-.43,2.45-1.66,6.52-3.02,1.12-.37,2.65-.83,4.5-1.25,0,0,12.99-.26,19,4,12.05,4.41,27,25,27,25,0,0,10.44,16.5,14,26l5,20,10,26,4,18,4,25v16.67l-3,26.33-3,3-3-11,1,9v5l-5,36-8,50-8,31-12,19-17,27-29,26-7,3,2-4,7-5,6-6,7-7,4-4,3.69-4.5,2.31-4.5,1-3,3.12-3.89.88-1.11,3-7-13,15-7,6-30,25-5,2,3.38-3.87,12.62-10.13,7-7,10-7,8-11,5-6-1-1v-4l1-8,1-5,2-8,1-4,1-4s0-2,1-3-1,1,1-3l2-4,1-4s1-1,1-2v-1l1-3,3-7s0-1,1-3,7-16,7-16l4-6,2-19,4-15,3-9-1-22v-11l-1-19-2-31-3-22-5-17-10-22-20-31-13-14-14-7s-3-2-2-4c-2-1,3-4,3-4Z"/>
    <path class="cls-13" d="M447,288c4.33-4.33,8.67-8.67,13-13"/>
    <path class="cls-13" d="M431.5,512.5c-2.38-5.68-4.78-12.55-6.62-20.49-1.53-6.6-2.39-12.67-2.85-18-2.1-2.92-9.5-25-9.5-25-.14-6.63.37-12.73,1.9-18l2.85-9,2.85-11.06c-.08-1.77-.03-3.97.37-6.46.46-2.85,1.25-5.21,2-7,.26-1.93.62-3.6,1-5,.53-1.97.89-2.69,1-4,.11-1.36-.08-3.03-1-5-.04-.69-.08-1.74,0-3,.46-7.61,4.32-10.95,7-17,4.7-10.62-.36-14.2,5-21,1.8-2.28,4.23-4.24,7-9,1.42-2.44,2.5-4.87,3-6,1.37-3.11,2.07-5.29,3-8,0,0,1.53-4.48,4-11,3.1-8.18,7.75-14.12,10-17,9.55-12.19,24.17-22.21,34-24,2.01-.37,5.66-.72,10-3,4.01-2.11,4.42-3.66,7-4,5.15-.69,7.78,4.92,11,4,3.46-.99,5.71-8.97,4-14-4.79-14.08-42.92-11.75-46.5-11.5-5.27.75-12.26,2.09-19.79,5.48-6.67,3-13.4,7.15-20.21,12.38l-19.97,13.17-24.69,34-10.45,23c-9.14,24.95-16.51,69.26-18.53,85.14-.11,1.22-.26,2.51-.46,3.85-.27,1.79-.59,3.46-.95,5-.37.98-.78,2.34-.95,4-.14,1.37-.08,2.57.03,3.5l.92,16.5,2.85,11,1.9,20c1.58,6,3.17,12,4.75,18,2.83,2.92,5.66,5.85,8.49,8.77l3.1,6.62.75,1.61,9.5,14,7.6,10,8.55,9s1.9,2,2.85,2,.95,1.85.95,1.85l1.9,3.14,1.9,4,.95,1c.95,1,1.9,1,1.9,1,0,0,.95,2,1.9,3s1.9,5,1.9,5c0,0-.95-1,1.9,7,2.85,8,.95,4,.95,4l.95,6s0,2,.95,5c.95,3,2.85,5,2.85,5,0,0-.95-1-.95,3v3s.95,0,1.7,5.13c.75,5.13,2.1,1.87,2.1,1.87v4c0,1,0,0,.95,2,.95,2,0-1,.95,5s1.9,5,3.8,6c1.9,1,.95-6,.95-6,0,0,0,1-.95-2s.95,2,0-6c-.37-3.14.95,4,.95,4l1.9,2c.33.35.58.67.75.93-.21-.56-.48-1.49-.75-2.93-.95-5-2.85-9-2.85-9l-3.8-6-1.9-5-1.9-3-.2-1.74s1.15.74,0-5.57c-1.15-6.31-.75-3.69-.75-3.69l-.95-4-.95-5,1.9,4c1.9,4,0,2,.95,3,.95,1,.95,3,1.9,5s0-1,0-1v-9l-2.1-3.59-1.7-8.41,3.8,8,4.75,6,6.65,7v-3l.95-6v-4l2.85-8.85v-7.15c.26-3-.3-5.15-.82-6.51-1.98-5.21-6.11-6.11-11-13-.47-.66-1.32-2.12-3-5-3.38-5.79-6.09-10.59-8-14Z"/>
  </g>
  <g id="Layer_19">
    <path class="cls-5" d="M514,249c-6.5,1.91-11.99,2.68-16,3-7.43.6-9.6-.32-15,1-6.76,1.65-11.39,5.04-14,7-5.43,4.06-8.43,8.25-14,16-5.53,7.7-4.37,7.56-8,12-6.26,7.66-8.85,7.03-16,15-3.51,3.91-7.37,8.29-10,15-1.98,5.06-1.04,5.78-3,14-2.57,10.79-4.5,10.85-7,21-1.23,4.98-.47,3.77-3,19-.78,4.69-.79,4.42-3,17-2.62,14.92-2.83,16.56-3,18-.89,7.72-.24,7.67-1,19-.25,3.73-.83,10.15-2,23-.86,9.43-1.12,12.03,0,16,1,3.53,1.76,3.42,6,12,3.76,7.6,5.64,11.4,6,15,.52,5.14-1.03,6.35,0,12,.74,4.07,1.86,5.19,3,9,1,3.36,1.88,8.33,1,15"/>
    <path class="cls-5" d="M502,245c-5.52.62-9.91.37-13,0-3.14-.38-6.09-1.03-10,0-.38.1-2.47.67-5,2-3.67,1.94-3.73,3.09-6,4-4.04,1.62-5.54-1.37-9,0-3.28,1.3-2.72,4.31-8,9-2.36,2.1-2.34,1.38-4,3-4.55,4.44-3.2,8.41-7,13-2.12,2.56-2.2.91-7,5-2.81,2.39-5.2,5.26-10,11-1.64,1.96-2.28,2.79-3,4-2.03,3.4-2.46,6.09-3,8-1.98,6.92-6.33,6.46-10,14-1.23,2.52-1.82,6.01-3,13-1.47,8.67-.85,9.67-2,15-.73,3.36-2.49,7.62-6,16-5.32,12.71-6.54,14.11-7,19-.04.46-.03,3.98,0,11,.05,11.07.1,10.97,0,12-.68,7.26-2.84,8.42-5,17-1.56,6.17-2.65,10.48-2,16,1.18,10.07,6.87,13.33,5,21-.56,2.3-1.41,3.38-2,7-.3,1.82-.78,5.82,0,10,1.36,7.34,5.37,8.6,9,17,1.09,2.51,2.36,6.18,3,11"/>
    <path class="cls-5" d="M616,418c-1.4-4.39-1.87-8.14-2-11-.29-6.29,1.12-7.33,0-12-.87-3.64-2.81-7.59-4-10-1.4-2.84-1.56-2.69-2-4-1.27-3.77-.44-6.47,0-11,.1-1.01.53-5.72,0-11-.36-3.57-1.24-6.71-3-13-1.69-6.05-1.89-5.76-3-10-2.42-9.21-1.19-9.39-3-14-1.4-3.57-1.59-2.07-8-13-1.95-3.33-3.53-6.19-5-9-.84-1.61-1.81-3.48-3-6-2.26-4.8-2.22-5.43-4-9-1.08-2.18-2.18-4.38-4-7-.54-.78-1.76-2.48-6-7-4.01-4.27-6.01-6.4-8-8-2.23-1.79-5.32-4.22-10-6-3.62-1.37-6.82-1.83-9-2"/>
    <path class="cls-5" d="M541,261c3.24,1.18,5.48,2.72,7,4,1.54,1.3,1.92,1.99,4,4,2.88,2.77,4.17,3.39,6,5,3.43,3.02,2.6,4.11,7,10,3.99,5.33,5.44,5.47,8,10,.81,1.43,1.55,3.3,3,7,3.37,8.59,3.51,10.39,6,16,1.14,2.56,2.19,4.93,4,8,3.38,5.73,5.57,7.41,7,12,.96,3.09.23,3.16,1,7,2.2,10.92,9.12,15.2,7,20-.84,1.9-2.09,1.61-3,4-1.1,2.9-.06,5.44,1,9,1.52,5.08,2.09,8.91,3,15,.8,5.33.26,5.19,1,11,1.26,9.89,2.68,9.34,3,15,.47,8.37-2.69,8.95-3,21,0,.09,0,3.4,0,10,0,9.95,0,9.92,0,10-.41,8.01-2.56,9.04-5,21-.97,4.75-.53,4.09-2,12-.77,4.14-1.65,8.88-3,14-1.62,6.17-2.38,7.04-5,15-5.53,16.78-3.43,16.74-7,23-3.04,5.33-5.7,7.35-8,14-1.27,3.68-1.77,6.88-2,9"/>
    <path class="cls-5" d="M383,533c-6.77-1.6-12.57-2.48-17-3-6.59-.77-9.44-.66-12,1-1.22.79-2.39,1.94-5,7-3.98,7.71-3.47,9.32-6,14-4.45,8.24-8.5,7.86-9,13-.45,4.65,2.45,9.34,6,12,3.66,2.74,7.55,2.98,9,3"/>
    <path class="cls-5" d="M390,568c1.28.95,3.49,2.86,5,6,.29.61,3.36,7.27,0,14-1.98,3.96-5.18,5.92-7,7-2.97,1.76-5.72,2.39-10,3-12.35,1.77-18.53,2.65-24,0-2.09-1.02-5.69-3.2-9-8"/>
    <path class="cls-5" d="M367.69,565c-.64-1.8-1.17-4.54,0-7.68.68-1.84,1.15-3.11,2.94-4.14,1.36-.78,3.12-1.21,13.7-1.18,9.9.03,11.51.41,12.72,1.18,2.23,1.42,2.16,3.55,1.96,4.73"/>
  </g>
  <g id="Layer_18">
    <polyline class="cls-8" points="287.35 619.55 164.53 281.5 649.89 108 825 590 767.63 610.34"/>
  </g>
</svg>